<mxfile host="app.diagrams.net" modified="2023-10-30T00:39:19.602Z" agent="Mozilla/5.0 (Windows NT 10.0; Win64; x64) AppleWebKit/537.36 (KHTML, like Gecko) Chrome/117.0.0.0 Safari/537.36 OPR/103.0.0.0" etag="BFdTiPtfKw6IpsK3cyw9" version="22.0.8" type="google">
  <diagram name="PÃ¡gina-1" id="QhDfdolxrOI9PejNLi6E">
    <mxGraphModel grid="1" page="1" gridSize="10" guides="1" tooltips="1" connect="1" arrows="1" fold="1" pageScale="1" pageWidth="1654" pageHeight="2336" math="0" shadow="0">
      <root>
        <mxCell id="0" />
        <mxCell id="1" parent="0" />
        <mxCell id="Cr1gAWtgC1s5pHC6i_s_-1" value="DEPARTAMENTO" style="rounded=0;whiteSpace=wrap;html=1;" vertex="1" parent="1">
          <mxGeometry x="280" y="210" width="120" height="60" as="geometry" />
        </mxCell>
        <mxCell id="Cr1gAWtgC1s5pHC6i_s_-2" value="AREA" style="rounded=0;whiteSpace=wrap;html=1;" vertex="1" parent="1">
          <mxGeometry x="280" y="360" width="120" height="40" as="geometry" />
        </mxCell>
        <mxCell id="Cr1gAWtgC1s5pHC6i_s_-3" value="ASIGNATURA" style="rounded=0;whiteSpace=wrap;html=1;" vertex="1" parent="1">
          <mxGeometry x="400" y="480" width="120" height="40" as="geometry" />
        </mxCell>
        <mxCell id="Cr1gAWtgC1s5pHC6i_s_-4" value="PROFESOR" style="rounded=0;whiteSpace=wrap;html=1;" vertex="1" parent="1">
          <mxGeometry x="160" y="480" width="120" height="40" as="geometry" />
        </mxCell>
        <mxCell id="Cr1gAWtgC1s5pHC6i_s_-5" value="PLAN_DOCENTE" style="rounded=0;whiteSpace=wrap;html=1;" vertex="1" parent="1">
          <mxGeometry x="280" y="600" width="120" height="40" as="geometry" />
        </mxCell>
        <mxCell id="Cr1gAWtgC1s5pHC6i_s_-6" value="" style="endArrow=classic;html=1;rounded=0;exitX=0.5;exitY=0;exitDx=0;exitDy=0;entryX=0.5;entryY=1;entryDx=0;entryDy=0;" edge="1" parent="1" source="Cr1gAWtgC1s5pHC6i_s_-5" target="Cr1gAWtgC1s5pHC6i_s_-4">
          <mxGeometry width="50" height="50" relative="1" as="geometry">
            <mxPoint x="150" y="620" as="sourcePoint" />
            <mxPoint x="200" y="570" as="targetPoint" />
          </mxGeometry>
        </mxCell>
        <mxCell id="Cr1gAWtgC1s5pHC6i_s_-7" value="" style="endArrow=classic;html=1;rounded=0;exitX=0.5;exitY=0;exitDx=0;exitDy=0;entryX=0.5;entryY=1;entryDx=0;entryDy=0;" edge="1" parent="1" source="Cr1gAWtgC1s5pHC6i_s_-5" target="Cr1gAWtgC1s5pHC6i_s_-3">
          <mxGeometry width="50" height="50" relative="1" as="geometry">
            <mxPoint x="190" y="630" as="sourcePoint" />
            <mxPoint x="240" y="580" as="targetPoint" />
          </mxGeometry>
        </mxCell>
        <mxCell id="Cr1gAWtgC1s5pHC6i_s_-8" value="" style="endArrow=classic;html=1;rounded=0;exitX=0.5;exitY=0;exitDx=0;exitDy=0;entryX=0.5;entryY=1;entryDx=0;entryDy=0;" edge="1" parent="1" source="Cr1gAWtgC1s5pHC6i_s_-4" target="Cr1gAWtgC1s5pHC6i_s_-2">
          <mxGeometry width="50" height="50" relative="1" as="geometry">
            <mxPoint x="200" y="470" as="sourcePoint" />
            <mxPoint x="250" y="420" as="targetPoint" />
          </mxGeometry>
        </mxCell>
        <mxCell id="Cr1gAWtgC1s5pHC6i_s_-9" value="" style="endArrow=classic;html=1;rounded=0;exitX=0.5;exitY=0;exitDx=0;exitDy=0;entryX=0.5;entryY=1;entryDx=0;entryDy=0;" edge="1" parent="1" source="Cr1gAWtgC1s5pHC6i_s_-3" target="Cr1gAWtgC1s5pHC6i_s_-2">
          <mxGeometry width="50" height="50" relative="1" as="geometry">
            <mxPoint x="480" y="430" as="sourcePoint" />
            <mxPoint x="530" y="380" as="targetPoint" />
          </mxGeometry>
        </mxCell>
        <mxCell id="Cr1gAWtgC1s5pHC6i_s_-10" value="" style="endArrow=classic;html=1;rounded=0;exitX=0.5;exitY=0;exitDx=0;exitDy=0;entryX=0.5;entryY=1;entryDx=0;entryDy=0;" edge="1" parent="1" source="Cr1gAWtgC1s5pHC6i_s_-2" target="Cr1gAWtgC1s5pHC6i_s_-1">
          <mxGeometry width="50" height="50" relative="1" as="geometry">
            <mxPoint x="160" y="350" as="sourcePoint" />
            <mxPoint x="210" y="300" as="targetPoint" />
          </mxGeometry>
        </mxCell>
        <mxCell id="Cr1gAWtgC1s5pHC6i_s_-11" value="&lt;font style=&quot;font-size: 20px;&quot;&gt;Padre&lt;/font&gt;" style="text;html=1;strokeColor=none;fillColor=none;align=center;verticalAlign=middle;whiteSpace=wrap;rounded=0;" vertex="1" parent="1">
          <mxGeometry x="560" y="225" width="60" height="30" as="geometry" />
        </mxCell>
        <mxCell id="HE3yR0EG7nzt9EmWWuAL-1" value="&lt;font style=&quot;font-size: 20px;&quot;&gt;Un hijo de un padre&lt;/font&gt;" style="text;html=1;strokeColor=none;fillColor=none;align=center;verticalAlign=middle;whiteSpace=wrap;rounded=0;" vertex="1" parent="1">
          <mxGeometry x="560" y="365" width="180" height="30" as="geometry" />
        </mxCell>
        <mxCell id="HE3yR0EG7nzt9EmWWuAL-2" value="&lt;font style=&quot;font-size: 20px;&quot;&gt;Dos hijos de un padre&lt;/font&gt;" style="text;html=1;strokeColor=none;fillColor=none;align=center;verticalAlign=middle;whiteSpace=wrap;rounded=0;" vertex="1" parent="1">
          <mxGeometry x="560" y="485" width="200" height="30" as="geometry" />
        </mxCell>
        <mxCell id="HE3yR0EG7nzt9EmWWuAL-3" value="&lt;font style=&quot;font-size: 20px;&quot;&gt;Un hijo de dos padres&lt;/font&gt;" style="text;html=1;strokeColor=none;fillColor=none;align=center;verticalAlign=middle;whiteSpace=wrap;rounded=0;" vertex="1" parent="1">
          <mxGeometry x="560" y="605" width="200" height="30" as="geometry" />
        </mxCell>
      </root>
    </mxGraphModel>
  </diagram>
</mxfile>
